<?xml version="1.0" encoding="UTF-8" standalone="no"?>
<!DOCTYPE svg PUBLIC "-//W3C//DTD SVG 1.1//EN" "http://www.w3.org/Graphics/SVG/1.1/DTD/svg11.dtd">
<!-- Создано Microsoft Visio, экспорт SVG svg_1.svg Page-1 -->
<svg xmlns="http://www.w3.org/2000/svg" xmlns:xlink="http://www.w3.org/1999/xlink" xmlns:ev="http://www.w3.org/2001/xml-events" width="8.26772in" height="11.6929in" viewBox="0 0 595.276 841.89" xml:space="preserve" color-interpolation-filters="sRGB" class="st35">
	<style type="text/css">
	<![CDATA[
		.st1 {fill:#000000;fill-opacity:0}
		.st2 {stroke:none;stroke-linecap:butt;stroke-width:0.75}
		.st3 {fill:url(#grad0-8);stroke:none;stroke-linecap:round;stroke-linejoin:round;stroke-width:0.75}
		.st4 {fill:#da8e37;stroke:#da8e37;stroke-linecap:butt;stroke-width:0.375}
		.st5 {fill:url(#grad0-14);stroke:none;stroke-linecap:round;stroke-linejoin:round;stroke-width:0.75}
		.st6 {fill:url(#grad0-18);stroke:none;stroke-linecap:round;stroke-linejoin:round;stroke-width:0.75}
		.st7 {fill:url(#grad6-22);stroke:none;stroke-linecap:round;stroke-linejoin:round;stroke-width:0.75}
		.st8 {fill:none}
		.st9 {stroke:#ffffff;stroke-linecap:round;stroke-linejoin:round;stroke-width:0.75}
		.st10 {fill:#ffffff;stroke:none;stroke-linecap:round;stroke-linejoin:round;stroke-width:0.75}
		.st11 {fill:url(#grad10-31);stroke:#78aded;stroke-linecap:butt;stroke-width:0.375}
		.st12 {fill:#55849d;stroke:none;stroke-linecap:round;stroke-linejoin:round;stroke-width:0.75}
		.st13 {fill:#6bbad8;stroke:none;stroke-linecap:round;stroke-linejoin:round;stroke-width:0.75}
		.st14 {fill:none;stroke:#000000;stroke-linecap:butt;stroke-width:0.375}
		.st15 {fill:none;stroke:#000000;stroke-linecap:round;stroke-linejoin:round;stroke-width:0.72}
		.st16 {fill:url(#grad2-51);stroke:none;stroke-linecap:round;stroke-linejoin:round;stroke-width:0.75}
		.st17 {fill:url(#grad7-55);stroke:none;stroke-linecap:round;stroke-linejoin:round;stroke-width:0.75}
		.st18 {fill:url(#grad0-59);stroke:none;stroke-linecap:round;stroke-linejoin:round;stroke-width:0.75}
		.st19 {fill:#7bb4d2}
		.st20 {stroke:none;stroke-linecap:round;stroke-linejoin:round;stroke-width:0.75}
		.st21 {fill:url(#grad0-66)}
		.st22 {fill:url(#grad3-71)}
		.st23 {stroke:#d75139;stroke-linecap:round;stroke-linejoin:round;stroke-width:0.380025}
		.st24 {stroke:#295687;stroke-linecap:round;stroke-linejoin:round;stroke-width:0.375}
		.st25 {stroke:#000000;stroke-linecap:round;stroke-linejoin:round;stroke-width:0.72}
		.st26 {fill:url(#grad2-137);stroke:none;stroke-linecap:round;stroke-linejoin:round;stroke-width:0.75}
		.st27 {fill:url(#grad0-141);stroke:none;stroke-linecap:round;stroke-linejoin:round;stroke-width:0.75}
		.st28 {stroke:#000000;stroke-linecap:round;stroke-linejoin:round;stroke-width:1.125}
		.st29 {fill:#000000;font-family:Calibri;font-size:1.00001em}
		.st30 {fill:url(#grad0-197);stroke:#000000;stroke-linecap:round;stroke-linejoin:round;stroke-width:0.375}
		.st31 {fill:url(#grad0-201);stroke:#000000;stroke-linecap:round;stroke-linejoin:round;stroke-width:0.375}
		.st32 {fill:#a6deec}
		.st33 {fill:url(#grad10-31);stroke:#000000;stroke-linecap:round;stroke-linejoin:round;stroke-width:0.375}
		.st34 {stroke:#26577b;stroke-linecap:round;stroke-linejoin:round;stroke-width:0.375}
		.st35 {fill:none;fill-rule:evenodd;font-size:12px;overflow:visible;stroke-linecap:square;stroke-miterlimit:3}
	]]>
	</style>

	<defs id="Patterns_And_Gradients">
		<linearGradient id="grad0-8" x1="0" y1="0" x2="1" y2="0" gradientTransform="rotate(0 0.5 0.5)">
			<stop offset="0" stop-color="#ffffff" stop-opacity="1"/>
			<stop offset="1" stop-color="#dab971" stop-opacity="1"/>
		</linearGradient>
		<linearGradient id="grad0-14" x1="0" y1="0" x2="1" y2="0" gradientTransform="rotate(270 0.5 0.5)">
			<stop offset="0" stop-color="#ffffff" stop-opacity="1"/>
			<stop offset="1" stop-color="#99dfee" stop-opacity="1"/>
		</linearGradient>
		<linearGradient id="grad0-18" x1="0" y1="0" x2="1" y2="0" gradientTransform="rotate(270 0.5 0.5)">
			<stop offset="0" stop-color="#ffffff" stop-opacity="1"/>
			<stop offset="1" stop-color="#4286aa" stop-opacity="1"/>
		</linearGradient>
		<radialGradient id="grad6-22" cx="1" cy="0" r="1.4">
			<stop offset="0" stop-color="#ffffff" stop-opacity="1"/>
			<stop offset="1" stop-color="#7bb4d2" stop-opacity="1"/>
		</radialGradient>
		<pattern id="grad10-31" x="0" y="0" width="1" height="1" patternContentUnits="objectBoundingBox">
			<path d="M 0.5 0.5 L 0 0 L 0 1 z" style="fill:url(#grad0-32)"/>
			<path d="M 0.5 0.5 L 1 0 L 1 1 z" style="fill:url(#grad0-33)"/>
			<path d="M 0.5 0.5 L 0 0 L 1 0 z" style="fill:url(#grad0-34)"/>
			<path d="M 0.5 0.5 L 0 1 L 1 1 z" style="fill:url(#grad0-35)"/>
		</pattern>
		<linearGradient id="grad0-32" x1="0" y1="0" x2="1" y2="0" gradientTransform="rotate(180 0.5 0.5)">
			<stop offset="0" stop-color="#ffffff" stop-opacity="1"/>
			<stop offset="1" stop-color="#b7e4ee" stop-opacity="1"/>
		</linearGradient>
		<linearGradient id="grad0-33" x1="0" y1="0" x2="1" y2="0" gradientTransform="rotate(360 0.5 0.5)">
			<stop offset="0" stop-color="#ffffff" stop-opacity="1"/>
			<stop offset="1" stop-color="#b7e4ee" stop-opacity="1"/>
		</linearGradient>
		<linearGradient id="grad0-34" x1="0" y1="0" x2="1" y2="0" gradientTransform="rotate(270 0.5 0.5)">
			<stop offset="0" stop-color="#ffffff" stop-opacity="1"/>
			<stop offset="1" stop-color="#b7e4ee" stop-opacity="1"/>
		</linearGradient>
		<linearGradient id="grad0-35" x1="0" y1="0" x2="1" y2="0" gradientTransform="rotate(90 0.5 0.5)">
			<stop offset="0" stop-color="#ffffff" stop-opacity="1"/>
			<stop offset="1" stop-color="#b7e4ee" stop-opacity="1"/>
		</linearGradient>
		<radialGradient id="grad2-51" cx="0" cy="1" r="1.4">
			<stop offset="0" stop-color="#ffffff" stop-opacity="1"/>
			<stop offset="1" stop-color="#da8c36" stop-opacity="1"/>
		</radialGradient>
		<radialGradient id="grad7-55" cx="0" cy="0" r="1.4">
			<stop offset="0" stop-color="#e1f4f9" stop-opacity="1"/>
			<stop offset="1" stop-color="#7bb4d2" stop-opacity="1"/>
		</radialGradient>
		<linearGradient id="grad0-59" x1="0" y1="0" x2="1" y2="0" gradientTransform="rotate(0 0.5 0.5)">
			<stop offset="0" stop-color="#f7f3e8" stop-opacity="1"/>
			<stop offset="1" stop-color="#b7e4ee" stop-opacity="1"/>
		</linearGradient>
		<linearGradient id="grad0-66" x1="0" y1="0" x2="1" y2="0" gradientTransform="rotate(0 0.5 0.5)">
			<stop offset="0" stop-color="#7bb4d2" stop-opacity="1"/>
			<stop offset="1" stop-color="#658eb8" stop-opacity="1"/>
		</linearGradient>
		<radialGradient id="grad3-71" cx="0.5" cy="0.5" r="0.73">
			<stop offset="0" stop-color="#ffffff" stop-opacity="1"/>
			<stop offset="1" stop-color="#da8c36" stop-opacity="1"/>
		</radialGradient>
		<radialGradient id="grad2-137" cx="0" cy="1" r="1.4">
			<stop offset="0" stop-color="#ffffff" stop-opacity="1"/>
			<stop offset="1" stop-color="#da8e37" stop-opacity="1"/>
		</radialGradient>
		<linearGradient id="grad0-141" x1="0" y1="0" x2="1" y2="0" gradientTransform="rotate(0 0.5 0.5)">
			<stop offset="0" stop-color="#b7e4ee" stop-opacity="1"/>
			<stop offset="1" stop-color="#7bb4d2" stop-opacity="1"/>
		</linearGradient>
		<linearGradient id="grad0-197" x1="0" y1="0" x2="1" y2="0" gradientTransform="rotate(90 0.5 0.5)">
			<stop offset="0" stop-color="#ffffff" stop-opacity="1"/>
			<stop offset="1" stop-color="#7ecee2" stop-opacity="1"/>
		</linearGradient>
		<linearGradient id="grad0-201" x1="0" y1="0" x2="1" y2="0" gradientTransform="rotate(90 0.5 0.5)">
			<stop offset="0" stop-color="#ffffff" stop-opacity="1"/>
			<stop offset="1" stop-color="#ceeef4" stop-opacity="1"/>
		</linearGradient>
	</defs>
	<g>
		<title>Страница-1</title>
		<g id="group1-1" transform="translate(219.685,-623.622)">
			<title>Чрезвычайное происшествие</title>
			<g id="shape2-2" transform="translate(7.64359,-11.6798)">
				<title>Лист.2</title>
				<path d="M25.85 841.89 L27.23 841.89 L27.23 800.96 L23.38 798.72 C23.99 798.35 24.3 798.68 24.3 798.68 C24.22 796.31&#xA;							 19.75 792.4 19.09 791.39 C18.42 790.38 18.63 785.66 18.04 784.15 C17.74 783.38 17 782.75 16.42 782.35&#xA;							 C16.12 782.09 15.78 781.88 15.4 781.68 C14.49 781.17 12.78 780.23 11.87 779.73 C10.35 778.89 8.38 781.1&#xA;							 8.28 783.41 C8.17 785.71 8.08 785.39 7.14 785.63 C6.25 785.85 3.85 785.23 3.07 786.88 L1.43 785.92 L0&#xA;							 785.89 L0 827.11 L25.85 841.89 ZM0.02 785.9 L0.02 785.78 L0 785.89 L0.02 785.9 ZM12.67 783.31 C13.99&#xA;							 783.32 14.98 785.14 15.03 786.92 C14.98 787.6 14.83 788.09 14.62 788.71 C14.48 789.22 13.75 789.77 12.97&#xA;							 789.7 C11.7 789.4 10.93 788.28 10.7 786.43 C10.69 786.32 10.68 786.21 10.67 786.09 C10.65 785.89 10.64&#xA;							 785.68 10.64 785.46 C10.78 783.2 12.14 783.32 12.67 783.31 Z" class="st1"/>
				<path d="M25.85 841.89 L27.23 841.89 L27.23 800.96 L23.38 798.72 C23.99 798.35 24.3 798.68 24.3 798.68 C24.22 796.31&#xA;							 19.75 792.4 19.09 791.39 C18.42 790.38 18.63 785.66 18.04 784.15 C17.74 783.38 17 782.75 16.42 782.35&#xA;							 C16.12 782.09 15.78 781.88 15.4 781.68 C14.49 781.17 12.78 780.23 11.87 779.73 C10.35 778.89 8.38 781.1&#xA;							 8.28 783.41 C8.17 785.71 8.08 785.39 7.14 785.63 C6.25 785.85 3.85 785.23 3.07 786.88 L1.43 785.92 L0&#xA;							 785.89 L0 827.11 L25.85 841.89M0.02 785.9 L0.02 785.78 L0 785.89M12.67 783.31 C13.99 783.32 14.98 785.14&#xA;							 15.03 786.92 C14.98 787.6 14.83 788.09 14.62 788.71 C14.48 789.22 13.75 789.77 12.97 789.7 C11.7 789.4&#xA;							 10.93 788.28 10.7 786.43 C10.69 786.32 10.68 786.21 10.67 786.09 C10.65 785.89 10.64 785.68 10.64 785.46&#xA;							 C10.78 783.2 12.14 783.32 12.67 783.31" class="st2"/>
			</g>
			<g id="shape3-5" transform="translate(7.64359,-11.0197)">
				<title>Лист.3</title>
				<path d="M-0 785.89 A179.049 178.917 0 0 1 25.91 800.85 A433.247 432.928 0 0 1 25.85 841.89 L0 827.11 L0.02 785.78&#xA;							 L0 785.89 Z" class="st3"/>
			</g>
			<g id="shape4-9" transform="translate(7.64359,-11.0197)">
				<title>Лист.4</title>
				<path d="M1.43 785.92 L0 785.89 L25.91 800.85 L27.23 800.96 L1.43 785.92 ZM27.23 841.89 L25.85 841.89 L25.91 800.85&#xA;							 L27.23 800.96 L27.23 841.89 Z" class="st4"/>
			</g>
			<g id="shape5-11" transform="translate(10.2088,-52.3802)">
				<title>Лист.5</title>
				<path d="M19.5 839.21 C19.15 836.56 16.53 834.35 15.65 833.11 C15.36 832.26 15.36 831.14 14.88 828.71 C15.19 824.53&#xA;							 14.24 823.81 12.84 823.04 C11.93 822.53 10.21 821.59 9.3 821.09 C7.78 820.25 5.82 822.46 5.71 824.77&#xA;							 C5.6 827.07 5.52 826.75 4.57 826.99 C3.62 827.22 0.93 826.49 0.37 828.64 C-0.2 830.79 0.06 831.12 0.06&#xA;							 831.12 L10.48 836.88 L10.49 836.88 L19.56 841.89 C19.56 841.89 19.84 841.86 19.5 839.21 ZM8.26 830.4&#xA;							 C8.05 829.45 8.33 829.38 8.06 827.45 C7.98 824.54 9.53 824.68 10.11 824.67 C11.43 824.68 12.41 826.5&#xA;							 12.46 828.28 C12.5 830.89 12.04 831.38 11.29 831.8 L8.26 830.4 Z" class="st5"/>
			</g>
			<g id="shape6-15" transform="translate(10.8716,-53.8303)">
				<title>Лист.6</title>
				<path d="M17.24 838.64 C16.37 837.31 13.33 835.06 13.03 834.52 C12.72 833.97 12.29 833.33 12.3 832.11 C12.3 831.33&#xA;							 12.06 830.21 11.8 829.73 C11.75 830.41 11.61 830.9 11.39 831.52 C11.26 832.03 10.53 832.58 9.75 832.51&#xA;							 C8.27 832.16 7.46 830.69 7.41 828.27 C7.18 828.37 7.11 828.66 7.11 828.66 C6.67 829.12 6.83 828.66 6.78&#xA;							 829.06 C6.68 830.24 6.2 830.37 5.87 830.56 C5.53 830.76 2.43 829.61 1.48 829.94 C0.53 830.27 0 831.68&#xA;							 0 831.68 L8.93 836.61 L9.83 837.11 L18.49 841.89 C18.49 841.89 18.12 839.98 17.24 838.64 Z" class="st6"/>
			</g>
			<g id="shape7-19" transform="translate(23.2863,-52.3802)">
				<title>Лист.7</title>
				<path d="M0 823.26 C-0 823.26 1.87 824.16 2.4 825.51 C2.99 827.02 2.78 831.74 3.44 832.75 C4.11 833.76 8.58 837.67&#xA;							 8.65 840.04 C8.65 840.04 8.35 839.71 7.72 840.09 C7.09 840.46 6.48 841.89 6.48 841.89 C6.48 841.89 6.66&#xA;							 839.86 6.17 838.79 C5.67 837.72 2.4 833.99 2.08 833.3 C1.59 832.23 1.9 827.41 1.56 825.74 C1.27 824.3&#xA;							 0.75 823.98 0 823.26 Z" class="st7"/>
			</g>
			<g id="shape8-23" transform="translate(17.4003,-61.8667)">
				<title>Лист.8</title>
				<path d="M6.02 836.63 C6.08 837.11 6.08 837.62 6.05 838.11 C5.91 840.59 4.16 841.89 2.67 841.22 C1.18 840.54 0 838.83&#xA;							 0.14 836.36 L6.02 836.63 Z" class="st8"/>
				<path d="M6.02 836.63 C6.08 837.11 6.08 837.62 6.05 838.11 C5.91 840.59 4.16 841.89 2.67 841.22 C1.18 840.54 0 838.83&#xA;							 0.14 836.36" class="st9"/>
			</g>
			<g id="shape9-26" transform="translate(16.7546,-68.123)">
				<title>Лист.9</title>
				<path d="M0 838.31 C0 838.31 1.85 836.88 2.36 837.11 C2.87 837.33 6.7 839.59 6.7 839.59 C6.7 839.59 7.81 840.08 7.85&#xA;							 841.89 C7.85 841.89 7.27 841.6 6.87 841.32 C6.47 841.05 1.58 838.4 1.58 838.4 C1.58 838.4 0.68 837.78&#xA;							 0 838.31 Z" class="st10"/>
			</g>
			<g id="shape10-28" transform="translate(10.2123,-17.9348)">
				<title>Лист.10</title>
				<path d="M0 830.44 L20.08 841.89 L20.08 813.31 L0 801.49 L0 830.44 Z" class="st11"/>
			</g>
			<g id="shape11-36" transform="translate(17.4461,-25.3004)">
				<title>Лист.11</title>
				<path d="M3.82 833.33 L2.75 832.89 C2.6 831.53 2.65 829.71 2.13 827.55 L1.08 823.19 C0.45 820.57 0.1 818.77 0.05&#xA;							 817.8 C0 816.91 0.21 816.38 0.67 816.2 C1.13 816.01 1.76 816.2 2.56 816.78 C3.33 817.33 3.98 818.07&#xA;							 4.53 818.98 C5.07 819.89 5.36 820.77 5.41 821.61 C5.46 822.48 5.28 823.92 4.87 825.92 L4.22 829.05 C4&#xA;							 830.17 3.86 831.59 3.82 833.33 ZM3.62 835.54 C4.34 836.06 4.98 836.78 5.52 837.7 C6.07 838.63 6.36 839.48&#xA;							 6.4 840.27 C6.45 841.05 6.23 841.53 5.75 841.71 C5.26 841.89 4.66 841.72 3.94 841.2 C3.22 840.68 2.58&#xA;							 839.96 2.04 839.04 C1.5 838.12 1.2 837.27 1.16 836.49 C1.12 835.72 1.33 835.23 1.81 835.04 C2.28 834.85&#xA;							 2.89 835.01 3.62 835.54 Z" class="st12"/>
			</g>
			<g id="shape12-38" transform="translate(16.0961,-25.3004)">
				<title>Лист.12</title>
				<path d="M4.24 833.22 L3.14 832.84 C2.99 831.47 2.65 829.71 2.13 827.55 L1.08 823.19 C0.45 820.57 0.1 818.77 0.05&#xA;							 817.8 C0 816.91 0.21 816.38 0.67 816.2 C1.13 816.01 1.76 816.2 2.56 816.78 C3.33 817.33 3.98 818.07&#xA;							 4.52 818.98 C5.07 819.89 5.36 820.77 5.41 821.61 C5.46 822.48 5.28 823.92 4.87 825.92 L4.22 829.05 C4&#xA;							 830.17 4.28 831.48 4.24 833.22 ZM3.62 835.54 C4.34 836.06 4.98 836.78 5.52 837.7 C6.07 838.63 6.36 839.48&#xA;							 6.4 840.27 C6.45 841.05 6.23 841.53 5.75 841.71 C5.26 841.89 4.66 841.72 3.94 841.2 C3.22 840.68 2.58&#xA;							 839.96 2.04 839.04 C1.5 838.12 1.2 837.27 1.16 836.49 C1.12 835.72 1.33 835.23 1.81 835.04 C2.28 834.85&#xA;							 2.89 835.01 3.62 835.54 Z" class="st13"/>
			</g>
			<g id="shape13-40" transform="translate(10.0061,-52.3794)">
				<title>Лист.13</title>
				<path d="M16.72 832.75 C16.06 831.73 16.33 827 15.68 825.51 C15.22 824.46 13.04 823.04 13.04 823.04 C13.04 823.04&#xA;							 10.42 821.59 9.51 821.09 C7.99 820.25 6.02 822.46 5.91 824.77 C5.8 827.07 5.72 826.75 4.77 826.99 C3.83&#xA;							 827.22 1.13 826.49 0.57 828.64 C-0 830.79 0.26 831.12 0.26 831.12 L10.68 836.88 L10.69 836.88 L19.76&#xA;							 841.89 C19.76 841.89 19.8 841.88 19.83 841.73 C20.01 841.35 20.5 840.38 21 840.09 C21.63 839.71 21.94&#xA;							 840.04 21.94 840.04 C21.85 837.67 17.39 833.76 16.72 832.75 Z" class="st14"/>
			</g>
			<g id="shape14-42" transform="translate(7.64359,-11.0197)">
				<title>Лист.14</title>
				<path d="M27.23 800.96 L23.37 798.72 C23.99 798.36 24.3 798.68 24.3 798.68 C24.22 796.31 19.75 792.4 19.09 791.39&#xA;							 C18 788.59 18.91 788.16 18.04 784.15 C17.83 783.03 15.4 781.68 15.4 781.68 C15.4 781.68 12.78 780.23&#xA;							 11.87 779.73 C10.35 778.89 8.38 781.1 8.28 783.41 C8.17 785.71 8.08 785.39 7.14 785.63 C6.25 785.85&#xA;							 3.86 785.23 3.07 786.88 L1.43 785.92 L0 785.89 L0.02 788.09 L0 827.11 L25.85 841.89 L27.23 841.89 L27.23&#xA;							 800.96 ZM15.03 786.92 C15.11 788.68 14.19 789.93 12.97 789.7 C11.76 789.47 10.7 787.86 10.62 786.09&#xA;							 C10.54 784.33 11.46 783.08 12.67 783.31 C13.89 783.54 14.95 785.15 15.03 786.92 Z" class="st15"/>
			</g>
		</g>
		<a xlink:href="svg_2.htm">
			<g id="group15-44" transform="translate(255.118,-453.543)">
				<title>Отдел</title>
				<desc>Страница-2</desc>
				<g id="shape16-45" transform="translate(10.5183,-7.01785)">
					<title>Лист.16</title>
					<path d="M16.26 816.2 C16.33 814.51 16.53 806.72 16.54 806.01 C16.55 805.38 16.67 798.26 16.19 796.89 C15.38&#xA;								 794.42 12.66 791.59 10.59 790.47 L10.58 789.99 C11.83 789.09 12.71 787.43 12.81 785.11 C12.58 782.1&#xA;								 11.62 779.59 8.14 779.33 C5.4 779.33 3.55 782.1 3.48 785.11 C3.54 787.14 4.29 788.77 5.42 789.75&#xA;								 L1.63 791.99 L1.51 792.05 C1.11 792.34 0.94 792.67 0.88 792.76 C0.22 793.21 0.36 796.75 0.21 801.6&#xA;								 C0.2 801.81 0.19 802.13 0.16 803.18 C0.12 804.42 -0 808.39 -0 809.55 C0.06 810.02 0.09 810.46 0.52&#xA;								 810.71 C0.79 810.97 1.05 811.15 1.29 811.27 C1.11 811.75 1 812.3 1.01 812.91 C1 814.58 1.81 815.78&#xA;								 2.84 816 L3.48 830.67 L0.36 834.24 A1.51363 1.57482 -180 0 0 0.14 835.81 L2.76 837.41 L4.36 836.3&#xA;								 A1.47829 1.53805 -180 0 0 4.19 838.18 L6.89 839.99 L14.79 835.35 L14.79 832.08 L15.37 821.07 C15.72&#xA;								 820.58 15.96 819.97 16.04 819.37 C16.13 818.42 15.96 817.58 15.62 816.94 C15.95 816.76 16.19 816.52&#xA;								 16.26 816.2 ZM1.54 792.05 C1.53 792.06 1.53 792.06 1.52 792.06 L1.54 792.05 ZM63.66 818.73 C63.73&#xA;								 817.08 63.92 809.5 63.94 808.81 C63.94 808.2 64.06 801.26 63.6 799.93 C62.8 797.52 60.15 794.77&#xA;								 58.14 793.67 L58.13 793.21 C59.35 792.33 60.21 790.71 60.3 788.45 C60.08 785.53 59.14 783.09 55.76&#xA;								 782.83 C53.09 782.82 51.29 785.53 51.21 788.45 C51.23 789.05 51.31 789.61 51.44 790.13 C50.52 789.16&#xA;								 49.5 788.35 48.6 787.87 L48.6 787.4 C49.81 786.52 50.67 784.91 50.77 782.65 C50.55 779.72 49.61&#xA;								 777.28 46.22 777.02 C43.56 777.02 41.76 779.72 41.68 782.65 C41.7 783.24 41.78 783.8 41.91 784.32&#xA;								 C40.98 783.36 39.96 782.54 39.07 782.06 L39.07 781.59 C40.28 780.72 41.14 779.1 41.24 776.84 C41.01&#xA;								 773.91 40.08 771.47 36.69 771.22 C34.02 771.21 32.22 773.91 32.14 776.84 C32.21 778.82 32.93 780.41&#xA;								 34.04 781.36 L30.34 783.54 L30.23 783.6 C29.84 783.88 29.68 784.2 29.61 784.3 C28.98 784.73 29.11&#xA;								 788.17 28.96 792.9 C28.96 793.1 28.95 793.41 28.92 794.44 C28.88 795.64 28.76 799.51 28.76 800.64&#xA;								 C28.82 801.1 28.85 801.53 29.27 801.77 C29.53 802.02 29.78 802.2 30.02 802.32 C29.84 802.78 29.74&#xA;								 803.32 29.74 803.91 C29.73 805.53 30.52 806.71 31.52 806.92 L32.14 821.2 L29.11 824.68 A1.47375&#xA;								 1.53333 -180 0 0 28.9 826.21 L31.45 827.76 L33.01 826.69 A1.43934 1.49753 -180 0 0 32.84 828.51&#xA;								 L35.47 830.28 L41.66 826.64 L41.68 827 L38.65 830.49 A1.47375 1.53333 -180 0 0 38.43 832.02 L40.98&#xA;								 833.57 L42.54 832.49 A1.43934 1.49753 -180 0 0 42.37 834.32 L45 836.08 L51.2 832.44 L51.21 832.81&#xA;								 L48.18 836.29 A1.47375 1.53333 -180 0 0 47.97 837.82 L50.52 839.37 L52.08 838.3 A1.43934 1.49753&#xA;								 -180 0 0 51.9 840.12 L54.53 841.89 L62.23 837.37 L62.23 834.19 L62.8 823.47 C63.13 822.99 63.37&#xA;								 822.4 63.45 821.81 C63.53 820.88 63.37 820.07 63.04 819.45 C63.36 819.27 63.59 819.04 63.66 818.73&#xA;								 ZM30.26 783.6 C30.25 783.61 30.25 783.61 30.24 783.61 L30.26 783.6 Z" class="st1"/>
					<path d="M16.26 816.2 C16.33 814.51 16.53 806.72 16.54 806.01 C16.55 805.38 16.67 798.26 16.19 796.89 C15.38&#xA;								 794.42 12.66 791.59 10.59 790.47 L10.58 789.99 C11.83 789.09 12.71 787.43 12.81 785.11 C12.58 782.1&#xA;								 11.62 779.59 8.14 779.33 C5.4 779.33 3.55 782.1 3.48 785.11 C3.54 787.14 4.29 788.77 5.42 789.75&#xA;								 L1.63 791.99 L1.51 792.05 C1.11 792.34 0.94 792.67 0.88 792.76 C0.22 793.21 0.36 796.75 0.21 801.6&#xA;								 C0.2 801.81 0.19 802.13 0.16 803.18 C0.12 804.42 -0 808.39 -0 809.55 C0.06 810.02 0.09 810.46 0.52&#xA;								 810.71 C0.79 810.97 1.05 811.15 1.29 811.27 C1.11 811.75 1 812.3 1.01 812.91 C1 814.58 1.81 815.78&#xA;								 2.84 816 L3.48 830.67 L0.36 834.24 A1.51363 1.57482 -180 0 0 0.14 835.81 L2.76 837.41 L4.36 836.3&#xA;								 A1.47829 1.53805 -180 0 0 4.19 838.18 L6.89 839.99 L14.79 835.35 L14.79 832.08 L15.37 821.07 C15.72&#xA;								 820.58 15.96 819.97 16.04 819.37 C16.13 818.42 15.96 817.58 15.62 816.94 C15.95 816.76 16.19 816.52&#xA;								 16.26 816.2M1.54 792.05 C1.53 792.06 1.53 792.06 1.52 792.06M63.66 818.73 C63.73 817.08 63.92 809.5&#xA;								 63.94 808.81 C63.94 808.2 64.06 801.26 63.6 799.93 C62.8 797.52 60.15 794.77 58.14 793.67 L58.13&#xA;								 793.21 C59.35 792.33 60.21 790.71 60.3 788.45 C60.08 785.53 59.14 783.09 55.76 782.83 C53.09 782.82&#xA;								 51.29 785.53 51.21 788.45 C51.23 789.05 51.31 789.61 51.44 790.13 C50.52 789.16 49.5 788.35 48.6&#xA;								 787.87 L48.6 787.4 C49.81 786.52 50.67 784.91 50.77 782.65 C50.55 779.72 49.61 777.28 46.22 777.02&#xA;								 C43.56 777.02 41.76 779.72 41.68 782.65 C41.7 783.24 41.78 783.8 41.91 784.32 C40.98 783.36 39.96&#xA;								 782.54 39.07 782.06 L39.07 781.59 C40.28 780.72 41.14 779.1 41.24 776.84 C41.01 773.91 40.08 771.47&#xA;								 36.69 771.22 C34.02 771.21 32.22 773.91 32.14 776.84 C32.21 778.82 32.93 780.41 34.04 781.36 L30.34&#xA;								 783.54 L30.23 783.6 C29.84 783.88 29.68 784.2 29.61 784.3 C28.98 784.73 29.11 788.17 28.96 792.9&#xA;								 C28.96 793.1 28.95 793.41 28.92 794.44 C28.88 795.64 28.76 799.51 28.76 800.64 C28.82 801.1 28.85&#xA;								 801.53 29.27 801.77 C29.53 802.02 29.78 802.2 30.02 802.32 C29.84 802.78 29.74 803.32 29.74 803.91&#xA;								 C29.73 805.53 30.52 806.71 31.52 806.92 L32.14 821.2 L29.11 824.68 A1.47375 1.53333 -180 0 0 28.9&#xA;								 826.21 L31.45 827.76 L33.01 826.69 A1.43934 1.49753 -180 0 0 32.84 828.51 L35.47 830.28 L41.66 826.64&#xA;								 L41.68 827 L38.65 830.49 A1.47375 1.53333 -180 0 0 38.43 832.02 L40.98 833.57 L42.54 832.49 A1.43934&#xA;								 1.49753 -180 0 0 42.37 834.32 L45 836.08 L51.2 832.44 L51.21 832.81 L48.18 836.29 A1.47375 1.53333&#xA;								 -180 0 0 47.97 837.82 L50.52 839.37 L52.08 838.3 A1.43934 1.49753 -180 0 0 51.9 840.12 L54.53 841.89&#xA;								 L62.23 837.37 L62.23 834.19 L62.8 823.47 C63.13 822.99 63.37 822.4 63.45 821.81 C63.53 820.88 63.37&#xA;								 820.07 63.04 819.45 C63.36 819.27 63.59 819.04 63.66 818.73M30.26 783.6 C30.25 783.61 30.25 783.61&#xA;								 30.24 783.61" class="st2"/>
				</g>
				<g id="shape17-48" transform="translate(40.3034,-42.7808)">
					<title>Лист.17</title>
					<path d="M2.1 835.71 C3.27 835.69 4.23 837.05 4.25 838.76 C4.26 840.47 3.31 841.87 2.14 841.89 C0.97 841.91 -0.01&#xA;								 840.66 0 838.84 C-0.02 837.08 0.93 835.73 2.1 835.71 Z" class="st16"/>
				</g>
				<g id="shape18-52" transform="translate(39.3192,-19.4597)">
					<title>Лист.18</title>
					<path d="M12.05 807.87 C12.58 798.05 6.9 796.08 6.27 795.68 C1.95 793.75 1.03 795.64 0.85 795.91 C0.22 796.34&#xA;								 0.35 799.79 0.2 804.51 C0.2 804.72 0.19 805.02 0.16 806.05 C0.12 807.25 -0 811.13 -0 812.25 C0.06&#xA;								 812.71 0.09 813.14 0.51 813.38 C1.48 814.32 2.37 814.18 2.55 814.17 L2.75 818.32 L3.38 832.81 L0.35&#xA;								 836.29 A1.47375 1.53333 -180 0 0 0.14 837.82 L2.69 839.37 L4.25 838.3 A1.43934 1.49753 -180 0 0&#xA;								 4.08 840.12 L6.71 841.89 L10.6 836.47 L11.95 822.72 C11.95 821.15 11.95 820.55 11.93 819.95 C11.95&#xA;								 819.64 12.05 807.87 12.05 807.87 Z" class="st17"/>
				</g>
				<g id="shape19-56" transform="translate(40.7932,-58.7796)">
					<title>Лист.19</title>
					<path d="M9.95 841.89 C9.21 839.28 7.43 837.67 6.82 837.12 C3 833.68 0.28 834.57 0 834.53 L3.79 832.32 C5.11&#xA;								 832.38 7.79 832.72 8.84 832.99 C10.85 834.09 13.5 836.84 14.29 839.25 L9.95 841.89 Z" class="st18"/>
				</g>
				<g id="shape20-60" transform="translate(41.8417,-19.4597)">
					<title>Лист.20</title>
					<path d="M12.56 821.25 L11.88 834.19 L11.88 837.37 L4.18 841.89 C4.18 841.89 4.02 841.06 4.09 840.79 C4.15 840.59&#xA;								 5.28 838.77 7.92 836.41 L8.8 821.16 L12.56 821.25 ZM1.73 838.3 L0.17 839.37 C0.17 839.37 -0.08 838.79&#xA;								 0.03 838.32 C0.07 838.13 0.79 836.75 3.44 834.4 L3.92 817.52 L4.84 818.07 L5.12 834.86 C4.59 835.38&#xA;								 2.34 837.71 1.73 838.3 Z" class="st19"/>
					<path d="M12.56 821.25 L11.88 834.19 L11.88 837.37 L4.18 841.89 C4.18 841.89 4.02 841.06 4.09 840.79 C4.15 840.59&#xA;								 5.28 838.77 7.92 836.41 L8.8 821.16M1.73 838.3 L0.17 839.37 C0.17 839.37 -0.08 838.79 0.03 838.32&#xA;								 C0.07 838.13 0.79 836.75 3.44 834.4 L3.92 817.52 L4.84 818.07 L5.12 834.86 C4.59 835.38 2.34 837.71&#xA;								 1.73 838.3" class="st20"/>
				</g>
				<g id="shape21-63" transform="translate(44.5728,-65.8253)">
					<title>Лист.21</title>
					<path d="M0.12 839.53 L0.14 840.66 C0.14 840.66 0 841.26 2.28 841.65 C2.28 841.65 4.74 841.89 5.07 841.26 L5.05&#xA;								 839.14 C5.05 839.14 3.29 840.92 0.21 839.48 L0.12 839.53 Z" class="st21"/>
					<path d="M0.12 839.53 L0.14 840.66 C0.14 840.66 0 841.26 2.28 841.65 C2.28 841.65 4.74 841.89 5.07 841.26 L5.05&#xA;								 839.14 C5.05 839.14 3.29 840.92 0.21 839.48" class="st20"/>
				</g>
				<g id="shape22-68" transform="translate(42.7039,-67.3764)">
					<title>Лист.22</title>
					<path d="M9.09 836.37 C8.94 839.93 6.9 841.89 4.55 841.89 C2.04 841.89 0.11 839.66 0 836.37 C0.08 833.44 1.88&#xA;								 830.74 4.55 830.75 C7.93 831 8.87 833.44 9.09 836.37 L-2.27 827.96 L9.09 836.37 Z" class="st22"/>
					<path d="M9.09 836.37 C8.94 839.93 6.9 841.89 4.55 841.89 C2.04 841.89 0.11 839.66 0 836.37 C0.08 833.44 1.88&#xA;								 830.74 4.55 830.75 C7.93 831 8.87 833.44 9.09 836.37" class="st20"/>
				</g>
				<g id="shape23-73" transform="translate(44.0386,-67.3764)">
					<title>Лист.23</title>
					<path d="M6 840.67 C5.23 841.44 4.27 841.89 3.22 841.89 C1.96 841.89 0.82 841.24 0 840.19 L6 840.67 Z" class="st8"/>
					<path d="M6 840.67 C5.23 841.44 4.27 841.89 3.22 841.89 C1.96 841.89 0.82 841.24 0 840.19" class="st23"/>
				</g>
				<g id="shape24-76" transform="translate(41.1861,-22.5619)">
					<title>Лист.24</title>
					<path d="M13.33 826.26 C11.28 829.67 8.24 825.65 9.77 823.07 C9.77 823.07 8.31 822.4 8.38 821.28 C8.45 820.16&#xA;								 8.35 809.2 8.35 809.2 L13.33 826.26 ZM5.39 821.24 L5.78 837.97 C5.78 837.97 2.72 840.92 2.14 841.89&#xA;								 L5.39 821.24 ZM0.89 821.42 L0 803.69 L0.89 821.42 Z" class="st8"/>
					<path d="M13.33 826.26 C11.28 829.67 8.24 825.65 9.77 823.07 C9.77 823.07 8.31 822.4 8.38 821.28 C8.45 820.16&#xA;								 8.35 809.2 8.35 809.2M5.39 821.24 L5.78 837.97 C5.78 837.97 2.72 840.92 2.14 841.89M0.89 821.42&#xA;								 L0 803.69" class="st24"/>
				</g>
				<g id="shape25-79" transform="translate(39.2822,-19.4597)">
					<title>Лист.25</title>
					<path d="M2.76 818.58 L3.42 832.81 C3.5 832.73 0.93 835.73 0.39 836.29 C-0.14 836.86 0.18 837.82 0.18 837.82&#xA;								 L2.72 839.37 L4.29 838.3 C3.57 838.99 4.11 840.12 4.11 840.12 L6.74 841.89 L14.44 837.37 L14.44&#xA;								 834.19 L14.91 823.74 C16.4 821.41 15.31 819.69 15.37 819.42 C15.61 819.22 15.92 818.9 15.91 818.04&#xA;								 C16.15 809.46 16.4 802.12 15.81 799.93 C15.26 797.92 13.16 795.87 12.36 795.16 C11.81 794.66 11.23&#xA;								 794.23 10.35 793.67 L10.31 793.14 C11.79 791.93 12.51 790.3 12.51 788.45 C12.51 785.35 10.48 782.83&#xA;								 7.97 782.83 C5.46 782.83 3.42 785.35 3.42 788.45 C3.42 790.32 4.16 791.98 5.3 793 L1.51 795.21 C1.51&#xA;								 795.21 0.56 795.73 0.45 797.56 L0 812.19 L2.76 818.58 ZM2.76 818.58 C1.2 818 0.5 815.6 1.31 813.93&#xA;								 C1.44 814 0 813.4 0 812.19 L2.76 818.58 Z" class="st8"/>
					<path d="M2.76 818.58 L3.42 832.81 C3.5 832.73 0.93 835.73 0.39 836.29 C-0.14 836.86 0.18 837.82 0.18 837.82&#xA;								 L2.72 839.37 L4.29 838.3 C3.57 838.99 4.11 840.12 4.11 840.12 L6.74 841.89 L14.44 837.37 L14.44&#xA;								 834.19 L14.91 823.74 C16.4 821.41 15.31 819.69 15.37 819.42 C15.61 819.22 15.92 818.9 15.91 818.04&#xA;								 C16.15 809.46 16.4 802.12 15.81 799.93 C15.26 797.92 13.16 795.87 12.36 795.16 C11.81 794.66 11.23&#xA;								 794.23 10.35 793.67 L10.31 793.14 C11.79 791.93 12.51 790.3 12.51 788.45 C12.51 785.35 10.48 782.83&#xA;								 7.97 782.83 C5.46 782.83 3.42 785.35 3.42 788.45 C3.42 790.32 4.16 791.98 5.3 793 L1.51 795.21 C1.51&#xA;								 795.21 0.56 795.73 0.45 797.56 L0 812.19M2.76 818.58 C1.2 818 0.5 815.6 1.31 813.93 C1.44 814 0&#xA;								 813.4 0 812.19" class="st25"/>
				</g>
				<g id="shape26-82" transform="translate(49.8373,-36.9743)">
					<title>Лист.26</title>
					<path d="M2.1 835.71 C3.27 835.69 4.23 837.05 4.25 838.76 C4.26 840.47 3.31 841.87 2.14 841.89 C0.97 841.91 -0.01&#xA;								 840.66 0 838.84 C-0.02 837.08 0.93 835.73 2.1 835.71 Z" class="st16"/>
				</g>
				<g id="shape27-85" transform="translate(48.8532,-13.6532)">
					<title>Лист.27</title>
					<path d="M12.05 807.87 C12.58 798.05 6.9 796.08 6.27 795.68 C1.95 793.75 1.03 795.64 0.85 795.91 C0.22 796.34&#xA;								 0.35 799.79 0.2 804.51 C0.2 804.72 0.19 805.02 0.16 806.05 C0.12 807.25 -0 811.13 -0 812.25 C0.06&#xA;								 812.71 0.09 813.14 0.51 813.38 C1.48 814.32 2.37 814.18 2.55 814.17 L2.75 818.32 L3.38 832.81 L0.35&#xA;								 836.29 A1.47375 1.53333 -180 0 0 0.14 837.82 L2.69 839.37 L4.25 838.3 A1.43934 1.49753 -180 0 0&#xA;								 4.08 840.12 L6.71 841.89 L10.6 836.47 L11.95 822.72 C11.95 821.15 11.95 820.55 11.93 819.95 C11.95&#xA;								 819.64 12.05 807.87 12.05 807.87 Z" class="st17"/>
				</g>
				<g id="shape28-88" transform="translate(50.3272,-52.9731)">
					<title>Лист.28</title>
					<path d="M9.95 841.89 C9.21 839.28 7.43 837.67 6.82 837.12 C3 833.68 0.28 834.57 0 834.53 L3.79 832.32 C5.11&#xA;								 832.38 7.79 832.72 8.84 832.99 C10.85 834.09 13.5 836.84 14.29 839.25 L9.95 841.89 Z" class="st18"/>
				</g>
				<g id="shape29-91" transform="translate(51.3757,-13.6532)">
					<title>Лист.29</title>
					<path d="M12.56 821.25 L11.88 834.19 L11.88 837.37 L4.18 841.89 C4.18 841.89 4.02 841.06 4.09 840.79 C4.15 840.59&#xA;								 5.28 838.77 7.92 836.41 L8.8 821.16 L12.56 821.25 ZM1.73 838.3 L0.17 839.37 C0.17 839.37 -0.08 838.79&#xA;								 0.03 838.32 C0.07 838.13 0.79 836.75 3.44 834.4 L3.92 817.52 L4.84 818.07 L5.12 834.86 C4.59 835.38&#xA;								 2.34 837.71 1.73 838.3 Z" class="st19"/>
					<path d="M12.56 821.25 L11.88 834.19 L11.88 837.37 L4.18 841.89 C4.18 841.89 4.02 841.06 4.09 840.79 C4.15 840.59&#xA;								 5.28 838.77 7.92 836.41 L8.8 821.16M1.73 838.3 L0.17 839.37 C0.17 839.37 -0.08 838.79 0.03 838.32&#xA;								 C0.07 838.13 0.79 836.75 3.44 834.4 L3.92 817.52 L4.84 818.07 L5.12 834.86 C4.59 835.38 2.34 837.71&#xA;								 1.73 838.3" class="st20"/>
				</g>
				<g id="shape30-94" transform="translate(54.1067,-60.0188)">
					<title>Лист.30</title>
					<path d="M0.12 839.53 L0.14 840.66 C0.14 840.66 0 841.26 2.28 841.65 C2.28 841.65 4.74 841.89 5.07 841.26 L5.05&#xA;								 839.14 C5.05 839.14 3.29 840.92 0.21 839.48 L0.12 839.53 Z" class="st21"/>
					<path d="M0.12 839.53 L0.14 840.66 C0.14 840.66 0 841.26 2.28 841.65 C2.28 841.65 4.74 841.89 5.07 841.26 L5.05&#xA;								 839.14 C5.05 839.14 3.29 840.92 0.21 839.48" class="st20"/>
				</g>
				<g id="shape31-98" transform="translate(52.2378,-61.5699)">
					<title>Лист.31</title>
					<path d="M9.09 836.37 C8.94 839.93 6.9 841.89 4.55 841.89 C2.04 841.89 0.11 839.66 0 836.37 C0.08 833.44 1.88&#xA;								 830.74 4.55 830.75 C7.93 831 8.87 833.44 9.09 836.37 L-2.27 827.96 L9.09 836.37 Z" class="st22"/>
					<path d="M9.09 836.37 C8.94 839.93 6.9 841.89 4.55 841.89 C2.04 841.89 0.11 839.66 0 836.37 C0.08 833.44 1.88&#xA;								 830.74 4.55 830.75 C7.93 831 8.87 833.44 9.09 836.37" class="st20"/>
				</g>
				<g id="shape32-102" transform="translate(53.5726,-61.5699)">
					<title>Лист.32</title>
					<path d="M6 840.67 C5.23 841.44 4.27 841.89 3.22 841.89 C1.96 841.89 0.82 841.24 0 840.19 L6 840.67 Z" class="st8"/>
					<path d="M6 840.67 C5.23 841.44 4.27 841.89 3.22 841.89 C1.96 841.89 0.82 841.24 0 840.19" class="st23"/>
				</g>
				<g id="shape33-105" transform="translate(50.7201,-16.7554)">
					<title>Лист.33</title>
					<path d="M13.33 826.26 C11.28 829.67 8.24 825.65 9.77 823.07 C9.77 823.07 8.31 822.4 8.38 821.28 C8.45 820.16&#xA;								 8.35 809.2 8.35 809.2 L13.33 826.26 ZM5.39 821.24 L5.78 837.97 C5.78 837.97 2.72 840.92 2.14 841.89&#xA;								 L5.39 821.24 ZM0.89 821.42 L0 803.69 L0.89 821.42 Z" class="st8"/>
					<path d="M13.33 826.26 C11.28 829.67 8.24 825.65 9.77 823.07 C9.77 823.07 8.31 822.4 8.38 821.28 C8.45 820.16&#xA;								 8.35 809.2 8.35 809.2M5.39 821.24 L5.78 837.97 C5.78 837.97 2.72 840.92 2.14 841.89M0.89 821.42&#xA;								 L0 803.69" class="st24"/>
				</g>
				<g id="shape34-108" transform="translate(48.8162,-13.6532)">
					<title>Лист.34</title>
					<path d="M2.76 818.58 L3.42 832.81 C3.5 832.73 0.93 835.73 0.39 836.29 C-0.14 836.86 0.18 837.82 0.18 837.82&#xA;								 L2.72 839.37 L4.29 838.3 C3.57 838.99 4.11 840.12 4.11 840.12 L6.74 841.89 L14.44 837.37 L14.44&#xA;								 834.19 L14.91 823.74 C16.4 821.41 15.31 819.69 15.37 819.42 C15.61 819.22 15.92 818.9 15.91 818.04&#xA;								 C16.15 809.46 16.4 802.12 15.81 799.93 C15.26 797.92 13.16 795.87 12.36 795.16 C11.81 794.66 11.23&#xA;								 794.23 10.35 793.67 L10.31 793.14 C11.79 791.93 12.51 790.3 12.51 788.45 C12.51 785.35 10.48 782.83&#xA;								 7.97 782.83 C5.46 782.83 3.42 785.35 3.42 788.45 C3.42 790.32 4.16 791.98 5.3 793 L1.51 795.21 C1.51&#xA;								 795.21 0.56 795.73 0.45 797.56 L0 812.19 L2.76 818.58 ZM2.76 818.58 C1.2 818 0.5 815.6 1.31 813.93&#xA;								 C1.44 814 0 813.4 0 812.19 L2.76 818.58 Z" class="st8"/>
					<path d="M2.76 818.58 L3.42 832.81 C3.5 832.73 0.93 835.73 0.39 836.29 C-0.14 836.86 0.18 837.82 0.18 837.82&#xA;								 L2.72 839.37 L4.29 838.3 C3.57 838.99 4.11 840.12 4.11 840.12 L6.74 841.89 L14.44 837.37 L14.44&#xA;								 834.19 L14.91 823.74 C16.4 821.41 15.31 819.69 15.37 819.42 C15.61 819.22 15.92 818.9 15.91 818.04&#xA;								 C16.15 809.46 16.4 802.12 15.81 799.93 C15.26 797.92 13.16 795.87 12.36 795.16 C11.81 794.66 11.23&#xA;								 794.23 10.35 793.67 L10.31 793.14 C11.79 791.93 12.51 790.3 12.51 788.45 C12.51 785.35 10.48 782.83&#xA;								 7.97 782.83 C5.46 782.83 3.42 785.35 3.42 788.45 C3.42 790.32 4.16 791.98 5.3 793 L1.51 795.21 C1.51&#xA;								 795.21 0.56 795.73 0.45 797.56 L0 812.19M2.76 818.58 C1.2 818 0.5 815.6 1.31 813.93 C1.44 814 0&#xA;								 813.4 0 812.19" class="st25"/>
				</g>
				<g id="shape35-111" transform="translate(59.3713,-31.1677)">
					<title>Лист.35</title>
					<path d="M2.1 835.71 C3.27 835.69 4.23 837.05 4.25 838.76 C4.26 840.47 3.31 841.87 2.14 841.89 C0.97 841.91 -0.01&#xA;								 840.66 0 838.84 C-0.02 837.08 0.93 835.73 2.1 835.71 Z" class="st16"/>
				</g>
				<g id="shape36-114" transform="translate(58.3872,-7.8467)">
					<title>Лист.36</title>
					<path d="M12.05 807.87 C12.58 798.05 6.9 796.08 6.27 795.68 C1.95 793.75 1.03 795.64 0.85 795.91 C0.22 796.34&#xA;								 0.35 799.79 0.2 804.51 C0.2 804.72 0.19 805.02 0.16 806.05 C0.12 807.25 -0 811.13 -0 812.25 C0.06&#xA;								 812.71 0.09 813.14 0.51 813.38 C1.48 814.32 2.37 814.18 2.55 814.17 L2.75 818.32 L3.38 832.81 L0.35&#xA;								 836.29 A1.47375 1.53333 -180 0 0 0.14 837.82 L2.69 839.37 L4.25 838.3 A1.43934 1.49753 -180 0 0&#xA;								 4.08 840.12 L6.71 841.89 L10.6 836.47 L11.95 822.72 C11.95 821.15 11.95 820.55 11.93 819.95 C11.95&#xA;								 819.64 12.05 807.87 12.05 807.87 Z" class="st17"/>
				</g>
				<g id="shape37-117" transform="translate(59.8612,-47.1666)">
					<title>Лист.37</title>
					<path d="M9.95 841.89 C9.21 839.28 7.43 837.67 6.82 837.12 C3 833.68 0.28 834.57 0 834.53 L3.79 832.32 C5.11&#xA;								 832.38 7.79 832.72 8.84 832.99 C10.85 834.09 13.5 836.84 14.29 839.25 L9.95 841.89 Z" class="st18"/>
				</g>
				<g id="shape38-120" transform="translate(60.9096,-7.8467)">
					<title>Лист.38</title>
					<path d="M12.56 821.25 L11.88 834.19 L11.88 837.37 L4.18 841.89 C4.18 841.89 4.02 841.06 4.09 840.79 C4.15 840.59&#xA;								 5.28 838.77 7.92 836.41 L8.8 821.16 L12.56 821.25 ZM1.73 838.3 L0.17 839.37 C0.17 839.37 -0.08 838.79&#xA;								 0.03 838.32 C0.07 838.13 0.79 836.75 3.44 834.4 L3.92 817.52 L4.84 818.07 L5.12 834.86 C4.59 835.38&#xA;								 2.34 837.71 1.73 838.3 Z" class="st19"/>
					<path d="M12.56 821.25 L11.88 834.19 L11.88 837.37 L4.18 841.89 C4.18 841.89 4.02 841.06 4.09 840.79 C4.15 840.59&#xA;								 5.28 838.77 7.92 836.41 L8.8 821.16M1.73 838.3 L0.17 839.37 C0.17 839.37 -0.08 838.79 0.03 838.32&#xA;								 C0.07 838.13 0.79 836.75 3.44 834.4 L3.92 817.52 L4.84 818.07 L5.12 834.86 C4.59 835.38 2.34 837.71&#xA;								 1.73 838.3" class="st20"/>
				</g>
				<g id="shape39-123" transform="translate(63.6407,-54.2123)">
					<title>Лист.39</title>
					<path d="M0.12 839.53 L0.14 840.66 C0.14 840.66 0 841.26 2.28 841.65 C2.28 841.65 4.74 841.89 5.07 841.26 L5.05&#xA;								 839.14 C5.05 839.14 3.29 840.92 0.21 839.48 L0.12 839.53 Z" class="st21"/>
					<path d="M0.12 839.53 L0.14 840.66 C0.14 840.66 0 841.26 2.28 841.65 C2.28 841.65 4.74 841.89 5.07 841.26 L5.05&#xA;								 839.14 C5.05 839.14 3.29 840.92 0.21 839.48" class="st20"/>
				</g>
				<g id="shape40-127" transform="translate(61.7718,-55.7634)">
					<title>Лист.40</title>
					<path d="M9.09 836.37 C8.94 839.93 6.9 841.89 4.55 841.89 C2.04 841.89 0.11 839.66 0 836.37 C0.08 833.44 1.88&#xA;								 830.74 4.55 830.75 C7.93 831 8.87 833.44 9.09 836.37 L-2.27 827.96 L9.09 836.37 Z" class="st22"/>
					<path d="M9.09 836.37 C8.94 839.93 6.9 841.89 4.55 841.89 C2.04 841.89 0.11 839.66 0 836.37 C0.08 833.44 1.88&#xA;								 830.74 4.55 830.75 C7.93 831 8.87 833.44 9.09 836.37" class="st20"/>
				</g>
				<g id="shape41-131" transform="translate(63.1066,-55.7634)">
					<title>Лист.41</title>
					<path d="M6 840.67 C5.23 841.44 4.27 841.89 3.22 841.89 C1.96 841.89 0.82 841.24 0 840.19 L6 840.67 Z" class="st8"/>
					<path d="M6 840.67 C5.23 841.44 4.27 841.89 3.22 841.89 C1.96 841.89 0.82 841.24 0 840.19" class="st23"/>
				</g>
				<g id="shape42-134" transform="translate(69.6157,-25.2695)">
					<title>Лист.42</title>
					<path d="M2.23 835.68 C3.56 835.68 4.58 837.2 4.39 839.23 C4.21 840.59 3.18 841.98 2.06 841.89 C0.72 841.72 -0.01&#xA;								 840.15 0 838.81 C0.35 836.76 1.35 836.21 1.98 835.68 L2.23 835.68 Z" class="st26"/>
				</g>
				<g id="shape43-138" transform="translate(69.8159,-29.7462)">
					<title>Лист.43</title>
					<path d="M4.34 821.83 C4.81 823.16 4.69 830.1 4.68 830.71 C4.66 831.4 4.47 838.98 4.41 840.63 C4.08 842.03 0.42&#xA;								 841.91 0.21 841.86 C0.42 841.91 0.37 826.89 0.3 826.11 C0.25 825.56 0.15 825.04 0.02 824.55 C0.01&#xA;								 824.53 0.01 824.5 0 824.47 C-0 824.47 0.82 821.02 4.34 821.83 Z" class="st27"/>
				</g>
				<g id="shape44-142" transform="translate(60.2541,-10.9489)">
					<title>Лист.44</title>
					<path d="M13.33 826.26 C11.28 829.67 8.24 825.65 9.77 823.07 C9.77 823.07 8.31 822.4 8.38 821.28 C8.45 820.16&#xA;								 8.35 809.2 8.35 809.2 L13.33 826.26 ZM5.39 821.24 L5.78 837.97 C5.78 837.97 2.72 840.92 2.14 841.89&#xA;								 L5.39 821.24 ZM0.89 821.42 L0 803.69 L0.89 821.42 Z" class="st8"/>
					<path d="M13.33 826.26 C11.28 829.67 8.24 825.65 9.77 823.07 C9.77 823.07 8.31 822.4 8.38 821.28 C8.45 820.16&#xA;								 8.35 809.2 8.35 809.2M5.39 821.24 L5.78 837.97 C5.78 837.97 2.72 840.92 2.14 841.89M0.89 821.42&#xA;								 L0 803.69" class="st24"/>
				</g>
				<g id="shape45-145" transform="translate(58.3502,-7.8467)">
					<title>Лист.45</title>
					<path d="M2.76 818.58 L3.42 832.81 C3.5 832.73 0.93 835.73 0.39 836.29 C-0.14 836.86 0.18 837.82 0.18 837.82&#xA;								 L2.72 839.37 L4.29 838.3 C3.57 838.99 4.11 840.12 4.11 840.12 L6.74 841.89 L14.44 837.37 L14.44&#xA;								 834.19 L14.91 823.74 C16.4 821.41 15.31 819.69 15.37 819.42 C15.61 819.22 15.92 818.9 15.91 818.04&#xA;								 C16.15 809.46 16.4 802.12 15.81 799.93 C15.26 797.92 13.16 795.87 12.36 795.16 C11.81 794.66 11.23&#xA;								 794.23 10.35 793.67 L10.31 793.14 C11.79 791.93 12.51 790.3 12.51 788.45 C12.51 785.35 10.48 782.83&#xA;								 7.97 782.83 C5.46 782.83 3.42 785.35 3.42 788.45 C3.42 790.32 4.16 791.98 5.3 793 L1.51 795.21 C1.51&#xA;								 795.21 0.56 795.73 0.45 797.56 L0 812.19 L2.76 818.58 ZM2.76 818.58 C1.2 818 0.5 815.6 1.31 813.93&#xA;								 C1.44 814 0 813.4 0 812.19 L2.76 818.58 Z" class="st8"/>
					<path d="M2.76 818.58 L3.42 832.81 C3.5 832.73 0.93 835.73 0.39 836.29 C-0.14 836.86 0.18 837.82 0.18 837.82&#xA;								 L2.72 839.37 L4.29 838.3 C3.57 838.99 4.11 840.12 4.11 840.12 L6.74 841.89 L14.44 837.37 L14.44&#xA;								 834.19 L14.91 823.74 C16.4 821.41 15.31 819.69 15.37 819.42 C15.61 819.22 15.92 818.9 15.91 818.04&#xA;								 C16.15 809.46 16.4 802.12 15.81 799.93 C15.26 797.92 13.16 795.87 12.36 795.16 C11.81 794.66 11.23&#xA;								 794.23 10.35 793.67 L10.31 793.14 C11.79 791.93 12.51 790.3 12.51 788.45 C12.51 785.35 10.48 782.83&#xA;								 7.97 782.83 C5.46 782.83 3.42 785.35 3.42 788.45 C3.42 790.32 4.16 791.98 5.3 793 L1.51 795.21 C1.51&#xA;								 795.21 0.56 795.73 0.45 797.56 L0 812.19M2.76 818.58 C1.2 818 0.5 815.6 1.31 813.93 C1.44 814 0&#xA;								 813.4 0 812.19" class="st25"/>
				</g>
				<g id="shape46-148" transform="translate(26.845,-6.51969)">
					<title>Лист.46</title>
					<path d="M0 827.26 L2.31 825.83 L30.18 841.89 L33.46 839.9" class="st28"/>
					<path d="M10.15 830.35 L13.87 828.15" class="st28"/>
					<path d="M20.22 836.15 L23.62 834.08" class="st28"/>
				</g>
				<g id="shape47-153" transform="translate(11.5699,-33.6981)">
					<title>Лист.47</title>
					<path d="M2.16 835.54 C3.36 835.52 4.35 836.92 4.36 838.68 C4.37 840.43 3.4 841.87 2.2 841.89 C1 841.91 -0.01&#xA;								 840.63 0 838.76 C-0.02 836.95 0.95 835.57 2.16 835.54 Z" class="st16"/>
				</g>
				<g id="shape48-156" transform="translate(10.5591,-9.74607)">
					<title>Лист.48</title>
					<path d="M12.38 806.95 C12.92 796.86 7.09 794.84 6.44 794.43 C2.01 792.44 1.05 794.39 0.88 794.66 C0.22 795.11&#xA;								 0.36 798.65 0.21 803.5 C0.2 803.71 0.19 804.03 0.16 805.08 C0.12 806.32 -0 810.29 -0 811.45 C0.06&#xA;								 811.92 0.09 812.36 0.52 812.61 C1.52 813.57 2.43 813.44 2.61 813.42 L2.83 817.68 L3.48 832.57 L0.36&#xA;								 836.14 A1.51363 1.57482 -180 0 0 0.14 837.71 L2.76 839.31 L4.36 838.2 A1.47829 1.53805 -180 0 0&#xA;								 4.19 840.07 L6.89 841.89 L10.89 836.32 L12.27 822.2 C12.27 820.58 12.27 819.98 12.26 819.36 C12.27&#xA;								 819.03 12.38 806.95 12.38 806.95 Z" class="st17"/>
				</g>
				<g id="shape49-159" transform="translate(12.073,-50.1298)">
					<title>Лист.49</title>
					<path d="M10.22 841.89 C9.46 839.21 7.64 837.56 7 836.99 C3.08 833.46 0.28 834.37 0 834.33 L3.89 832.06 C5.25&#xA;								 832.12 8 832.47 9.08 832.75 C11.14 833.87 13.87 836.71 14.68 839.18 L10.22 841.89 Z" class="st18"/>
				</g>
				<g id="shape50-162" transform="translate(13.1498,-9.74607)">
					<title>Лист.50</title>
					<path d="M12.9 820.69 L12.2 833.98 L12.2 837.25 L4.3 841.89 C4.3 841.89 4.13 841.04 4.2 840.76 C4.26 840.56 5.42&#xA;								 838.68 8.14 836.26 L9.04 820.6 L12.9 820.69 ZM1.77 838.2 L0.17 839.31 C0.17 839.31 -0.08 838.71&#xA;								 0.03 838.23 C0.07 838.02 0.81 836.61 3.53 834.2 L4.03 816.86 L4.97 817.43 L5.26 834.67 C4.72 835.21&#xA;								 2.41 837.6 1.77 838.2 Z" class="st19"/>
					<path d="M12.9 820.69 L12.2 833.98 L12.2 837.25 L4.3 841.89 C4.3 841.89 4.13 841.04 4.2 840.76 C4.26 840.56 5.42&#xA;								 838.68 8.14 836.26 L9.04 820.6M1.77 838.2 L0.17 839.31 C0.17 839.31 -0.08 838.71 0.03 838.23 C0.07&#xA;								 838.02 0.81 836.61 3.53 834.2 L4.03 816.86 L4.97 817.43 L5.26 834.67 C4.72 835.21 2.41 837.6 1.77&#xA;								 838.2" class="st20"/>
				</g>
				<g id="shape51-165" transform="translate(15.9548,-57.3662)">
					<title>Лист.51</title>
					<path d="M0.13 839.47 L0.15 840.62 C0.15 840.62 -0 841.25 2.34 841.64 C2.34 841.64 4.87 841.89 5.21 841.25 L5.18&#xA;								 839.06 C5.18 839.06 3.38 840.89 0.21 839.42 L0.13 839.47 Z" class="st21"/>
					<path d="M0.13 839.47 L0.15 840.62 C0.15 840.62 -0 841.25 2.34 841.64 C2.34 841.64 4.87 841.89 5.21 841.25 L5.18&#xA;								 839.06 C5.18 839.06 3.38 840.89 0.21 839.42" class="st20"/>
				</g>
				<g id="shape52-169" transform="translate(14.0353,-58.9593)">
					<title>Лист.52</title>
					<path d="M9.34 836.22 C9.18 839.87 7.09 841.89 4.67 841.89 C2.1 841.89 0.11 839.6 0 836.22 C0.08 833.22 1.93&#xA;								 830.44 4.67 830.44 C8.15 830.71 9.11 833.22 9.34 836.22 L-2.33 827.58 L9.34 836.22 Z" class="st22"/>
					<path d="M9.34 836.22 C9.18 839.87 7.09 841.89 4.67 841.89 C2.1 841.89 0.11 839.6 0 836.22 C0.08 833.22 1.93&#xA;								 830.44 4.67 830.44 C8.15 830.71 9.11 833.22 9.34 836.22" class="st20"/>
				</g>
				<g id="shape53-173" transform="translate(15.4062,-58.9593)">
					<title>Лист.53</title>
					<path d="M6.16 840.64 C5.37 841.42 4.38 841.89 3.3 841.89 C2.01 841.89 0.85 841.22 0 840.14 L6.16 840.64 Z" class="st8"/>
					<path d="M6.16 840.64 C5.37 841.42 4.38 841.89 3.3 841.89 C2.01 841.89 0.85 841.22 0 840.14" class="st23"/>
				</g>
				<g id="shape54-176" transform="translate(22.0914,-27.6403)">
					<title>Лист.54</title>
					<path d="M2.29 835.51 C3.65 835.51 4.7 837.07 4.51 839.16 C4.33 840.55 3.26 841.98 2.12 841.89 C0.74 841.71 -0.01&#xA;								 840.1 0 838.73 C0.36 836.62 1.39 836.05 2.03 835.51 L2.29 835.51 Z" class="st16"/>
				</g>
				<g id="shape55-179" transform="translate(22.2971,-32.2381)">
					<title>Лист.55</title>
					<path d="M4.46 821.28 C4.94 822.65 4.81 829.78 4.8 830.41 C4.79 831.11 4.59 838.9 4.53 840.59 C4.2 842.03 0.43&#xA;								 841.92 0.22 841.86 C0.43 841.92 0.38 826.49 0.31 825.68 C0.26 825.11 0.16 824.58 0.02 824.08 C0.01&#xA;								 824.06 0.01 824.03 0 824 C0 824 0.84 820.46 4.46 821.28 Z" class="st27"/>
				</g>
				<g id="shape56-182" transform="translate(12.4765,-12.9322)">
					<title>Лист.56</title>
					<path d="M13.69 825.84 C11.59 829.34 8.46 825.21 10.04 822.56 C10.04 822.56 8.53 821.87 8.61 820.72 C8.68 819.57&#xA;								 8.58 808.32 8.58 808.32 L13.69 825.84 ZM5.53 820.68 L5.94 837.86 C5.94 837.86 2.79 840.89 2.2 841.89&#xA;								 L5.53 820.68 ZM0.91 820.87 L0 802.66 L0.91 820.87 Z" class="st8"/>
					<path d="M13.69 825.84 C11.59 829.34 8.46 825.21 10.04 822.56 C10.04 822.56 8.53 821.87 8.61 820.72 C8.68 819.57&#xA;								 8.58 808.32 8.58 808.32M5.53 820.68 L5.94 837.86 C5.94 837.86 2.79 840.89 2.2 841.89M0.91 820.87&#xA;								 L0 802.66" class="st24"/>
				</g>
				<g id="shape57-185" transform="translate(10.5211,-9.74607)">
					<title>Лист.57</title>
					<path d="M2.83 817.95 L3.51 832.57 C3.6 832.48 0.95 835.56 0.4 836.14 C-0.15 836.72 0.18 837.71 0.18 837.71 L2.8&#xA;								 839.31 L4.4 838.2 C3.67 838.91 4.22 840.07 4.22 840.07 L6.93 841.89 L14.83 837.25 L14.83 833.98&#xA;								 L15.32 823.24 C16.84 820.85 15.72 819.09 15.78 818.82 C16.03 818.61 16.35 818.28 16.34 817.39 C16.58&#xA;								 808.59 16.84 801.04 16.23 798.79 C15.68 796.73 13.51 794.63 12.7 793.9 C12.13 793.38 11.54 792.94&#xA;								 10.63 792.37 L10.59 791.82 C12.11 790.58 12.85 788.9 12.85 787.01 C12.85 783.82 10.76 781.23 8.18&#xA;								 781.23 C5.6 781.23 3.51 783.82 3.51 787.01 C3.51 788.93 4.28 790.63 5.44 791.68 L1.55 793.95 C1.55&#xA;								 793.95 0.57 794.49 0.47 796.36 L0 811.38 L2.83 817.95 ZM2.83 817.95 C1.23 817.35 0.52 814.89 1.35&#xA;								 813.17 C1.48 813.25 0 812.63 0 811.38 L2.83 817.95 Z" class="st8"/>
					<path d="M2.83 817.95 L3.51 832.57 C3.6 832.48 0.95 835.56 0.4 836.14 C-0.15 836.72 0.18 837.71 0.18 837.71 L2.8&#xA;								 839.31 L4.4 838.2 C3.67 838.91 4.22 840.07 4.22 840.07 L6.93 841.89 L14.83 837.25 L14.83 833.98&#xA;								 L15.32 823.24 C16.84 820.85 15.72 819.09 15.78 818.82 C16.03 818.61 16.35 818.28 16.34 817.39 C16.58&#xA;								 808.59 16.84 801.04 16.23 798.79 C15.68 796.73 13.51 794.63 12.7 793.9 C12.13 793.38 11.54 792.94&#xA;								 10.63 792.37 L10.59 791.82 C12.11 790.58 12.85 788.9 12.85 787.01 C12.85 783.82 10.76 781.23 8.18&#xA;								 781.23 C5.6 781.23 3.51 783.82 3.51 787.01 C3.51 788.93 4.28 790.63 5.44 791.68 L1.55 793.95 C1.55&#xA;								 793.95 0.57 794.49 0.47 796.36 L0 811.38M2.83 817.95 C1.23 817.35 0.52 814.89 1.35 813.17 C1.48&#xA;								 813.25 0 812.63 0 811.38" class="st25"/>
				</g>
				<g id="shape15-188">
					<text x="13.52" y="852.69" class="st29">Страница-2</text>				</g>
			</g>
		</a>
		<g id="group58-190" transform="translate(212.598,-311.811)">
			<title>Соглашение</title>
			<g id="shape59-191" transform="translate(14.2162,-5.84646)">
				<title>Лист.59</title>
				<path d="M0 821.65 L5.31 824.68 L24.85 835.85 L56.61 817.49 L49.48 813.34 L51.14 807.99 L32.06 796.89 L0.24 815.31&#xA;							 L5.61 818.42 L0 821.65 ZM0.24 827.65 L24.85 841.89 L56.61 823.53 L51.5 820.54 L24.85 835.85 L5.32 824.69&#xA;							 L0.24 827.65 ZM5.32 824.69 L5.31 824.68 L5.32 824.69 Z" class="st1"/>
				<path d="M0 821.65 L5.31 824.68 L24.85 835.85 L56.61 817.49 L49.48 813.34 L51.14 807.99 L32.06 796.89 L0.24 815.31&#xA;							 L5.61 818.42 L0 821.65M0.24 827.65 L24.85 841.89 L56.61 823.53 L51.5 820.54 L24.85 835.85 L5.32 824.69&#xA;							 L0.24 827.65M5.32 824.69 L5.31 824.68" class="st20"/>
			</g>
			<g id="shape60-194" transform="translate(14.2162,-5.84719)">
				<title>Лист.60</title>
				<path d="M0.24 827.65 L5.33 824.67 L24.85 835.85 L51.5 820.54 L56.61 823.53 L24.85 841.89 L0.24 827.65 ZM0 821.65&#xA;							 L32.06 803.19 L56.61 817.49 L24.85 835.85 L0 821.65 Z" class="st30"/>
			</g>
			<g id="shape61-198" transform="translate(14.4603,-18.1864)">
				<title>Лист.61</title>
				<path d="M50.9 820.33 L31.82 809.23 L0 827.65 L24.61 841.89 L48.49 828.08 L50.9 820.33 Z" class="st31"/>
			</g>
			<g id="shape62-202" transform="translate(56.3949,-31.5189)">
				<title>Лист.62</title>
				<path d="M1.04 838.06 L6.34 841.26 L5.2 841.89 L0 838.84 L1.04 838.06 Z" class="st32"/>
				<path d="M1.04 838.06 L6.34 841.26 L5.2 841.89 L0 838.84" class="st20"/>
			</g>
			<g id="shape63-205" transform="translate(57.438,-31.9938)">
				<title>Лист.63</title>
				<path d="M5.51 841.89 L0 838.53 L7.92 834.14 L5.51 841.89 Z" class="st33"/>
			</g>
			<g id="shape64-208" transform="translate(24.2025,-24.5261)">
				<title>Лист.64</title>
				<path d="M16.96 841.89 L0 832.06 L16.96 841.89 ZM21.5 839.44 L4.4 829.53 L21.5 839.44 ZM26.12 836.64 L9.11 826.78&#xA;							 L26.12 836.64 ZM30.8 833.93 L13.78 824.06 L30.8 833.93 ZM29.65 828.33 L17.86 821.5 L29.65 828.33 Z" class="st8"/>
				<path d="M16.96 841.89 L0 832.06M21.5 839.44 L4.4 829.53M26.12 836.64 L9.11 826.78M30.8 833.93 L13.78 824.06M29.65&#xA;							 828.33 L17.86 821.5" class="st34"/>
			</g>
			<g id="shape65-211" transform="translate(14.2162,-5.84719)">
				<title>Лист.65</title>
				<path d="M51.5 820.54 L56.61 817.49 L49.49 813.34 L51.14 807.99 L32.06 796.89 L0.24 815.31 L5.48 818.39 L0 821.65&#xA;							 L5.33 824.67 L0.24 827.65 L24.85 841.89 L56.61 823.53 L51.5 820.54 Z" class="st15"/>
			</g>
		</g>
	</g>
</svg>
